<?xml version="1.0" encoding="UTF-8" standalone="no"?>
<!-- Created with Inkscape (http://www.inkscape.org/) -->

<svg
   width="16"
   height="16"
   viewBox="0 0 16 16"
   version="1.1"
   id="svg1"
   inkscape:version="1.4 (86a8ad7, 2024-10-11)"
   sodipodi:docname="reactions.svg"
   xmlns:inkscape="http://www.inkscape.org/namespaces/inkscape"
   xmlns:sodipodi="http://sodipodi.sourceforge.net/DTD/sodipodi-0.dtd"
   xmlns="http://www.w3.org/2000/svg"
   xmlns:svg="http://www.w3.org/2000/svg">
  <sodipodi:namedview
     id="namedview1"
     pagecolor="#ffffff"
     bordercolor="#000000"
     borderopacity="0.25"
     inkscape:showpageshadow="2"
     inkscape:pageopacity="0.0"
     inkscape:pagecheckerboard="0"
     inkscape:deskcolor="#d1d1d1"
     inkscape:document-units="px"
     showgrid="true"
     inkscape:zoom="50.4375"
     inkscape:cx="7.9504337"
     inkscape:cy="9.5861214"
     inkscape:window-width="1920"
     inkscape:window-height="1046"
     inkscape:window-x="-11"
     inkscape:window-y="-11"
     inkscape:window-maximized="1"
     inkscape:current-layer="layer1"
     showguides="false">
    <inkscape:grid
       id="grid1"
       units="px"
       originx="0"
       originy="0"
       spacingx="1"
       spacingy="1"
       empcolor="#0099e5"
       empopacity="0.30196078"
       color="#0099e5"
       opacity="0.14901961"
       empspacing="5"
       enabled="true"
       visible="true" />
  </sodipodi:namedview>
  <defs
     id="defs1" />
  <g
     inkscape:label="Layer 1"
     inkscape:groupmode="layer"
     id="layer1">
    <g
       id="g1"
       transform="translate(0.0567953,-0.46809169)">
      <g
         style="fill:#000000;fill-opacity:0;stroke:#e0e0e0;stroke-width:2.95117;stroke-dasharray:none;stroke-opacity:1"
         id="g12"
         transform="matrix(-0.20601035,0,0.00536861,0.38095279,5.0059914,0.93484346)">
        <path
           d="M 7,5 A 1,1 0 0 1 8,4 h 5 c 2.242,0 4.01,0.778 5.218,2.023 C 19.414,7.256 20,8.887 20,10.5 20,12.113 19.414,13.744 18.218,14.977 17.01,16.222 15.242,17 13,17 H 8.414 l 2.043,2.043 a 1,1 0 0 1 -1.414,1.414 l -3.75,-3.75 a 1,1 0 0 1 0,-1.414 l 3.75,-3.75 a 1,1 0 0 1 1.414,1.414 L 8.414,15 H 13 c 1.758,0 2.99,-0.597 3.782,-1.415 C 17.586,12.755 18,11.637 18,10.5 18,9.363 17.586,8.244 16.782,7.415 15.99,6.597 14.758,6 13,6 H 8 A 1,1 0 0 1 7,5 Z"
           fill="#ffffff"
           id="path12"
           style="fill:#000000;fill-opacity:0;stroke:#e0e0e0;stroke-width:2.95117;stroke-dasharray:none;stroke-opacity:1" />
      </g>
      <path
         style="fill:#008000;stroke:#e0e0e0;stroke-width:1.98774;stroke-dasharray:none"
         d="M 4.9675039,7.0189971 11.00425,7.0116144"
         id="path1" />
      <g
         style="fill:#000000;fill-opacity:0;stroke:#e0e0e0;stroke-width:3.13743;stroke-dasharray:none;stroke-opacity:1"
         id="g6"
         transform="matrix(0.18648039,0,0,-0.29600794,4.5823462,14.773312)">
        <path
           d="m 6.7186013,14.549672 c 0.964972,-0.969107 -0.490013,-1.795631 -1.425,-0.797592 l -1.992168,1.641552 V 1.7236324 c -2.32e-4,-1.33310053 -2.000232,-1.29373753 -2,0.039363 V 15.427996 l -2.3820277,-1.901788 c -0.935446,-0.902616 -2.5292919,0.131811 -1.6229299,1.063634 l 4.1179576,3.798929 c 0.48952,0.486734 1.290478,0.470971 1.78,-0.03503 l 3.986004,-4.224965 z"
           fill="#ffffff"
           id="path1-88"
           style="fill:#000000;fill-opacity:0;stroke:#e0e0e0;stroke-width:3.13743;stroke-dasharray:none;stroke-opacity:1"
           sodipodi:nodetypes="cccccccccccc" />
      </g>
      <g
         style="fill:#000000;fill-opacity:0;stroke:#e0e0e0;stroke-width:2.95117;stroke-dasharray:none;stroke-opacity:1"
         id="g2"
         transform="matrix(0.20601035,0,-0.00536861,0.38095279,10.880418,1.0141495)">
        <path
           d="M 7,5 A 1,1 0 0 1 8,4 h 5 c 2.242,0 4.01,0.778 5.218,2.023 C 19.414,7.256 20,8.887 20,10.5 20,12.113 19.414,13.744 18.218,14.977 17.01,16.222 15.242,17 13,17 H 8.414 l 2.043,2.043 a 1,1 0 0 1 -1.414,1.414 l -3.75,-3.75 a 1,1 0 0 1 0,-1.414 l 3.75,-3.75 a 1,1 0 0 1 1.414,1.414 L 8.414,15 H 13 c 1.758,0 2.99,-0.597 3.782,-1.415 C 17.586,12.755 18,11.637 18,10.5 18,9.363 17.586,8.244 16.782,7.415 15.99,6.597 14.758,6 13,6 H 8 A 1,1 0 0 1 7,5 Z"
           fill="#ffffff"
           id="path2"
           style="fill:#000000;fill-opacity:0;stroke:#e0e0e0;stroke-width:2.95117;stroke-dasharray:none;stroke-opacity:1" />
      </g>
      <g
         style="fill:#000000;fill-opacity:0;stroke:#e0e0e0;stroke-width:3.13743;stroke-dasharray:none;stroke-opacity:1"
         id="g3"
         transform="matrix(0.1861554,0,0,-0.29902898,10.531032,13.963172)">
        <path
           d="m 6.8247347,11.775199 c 0.964972,-0.969107 -0.490013,-1.7956309 -1.425,-0.797592 l -1.992168,1.641552 V -1.0508405 c -2.32e-4,-1.3331005 -2.000232,-1.2937375 -2,0.039363 V 12.653523 L -0.97446101,10.751735 C -1.909907,9.8491191 -3.5037529,10.883546 -2.5973909,11.815369 l 4.1179576,3.798929 c 0.48952,0.486734 1.290478,0.470971 1.78,-0.03503 l 3.986004,-4.224965 z"
           fill="#ffffff"
           id="path3"
           style="fill:#000000;fill-opacity:0;stroke:#e0e0e0;stroke-width:3.13743;stroke-dasharray:none;stroke-opacity:1"
           sodipodi:nodetypes="cccccccccccc" />
      </g>
    </g>
  </g>
</svg>
